<svg xmlns="http://www.w3.org/2000/svg" viewBox="0 0 640 420" role="img" aria-labelledby="t d"><title id="t">Double check backflow assembly</title><desc id="d">Technical line drawing showing shutoffs and two internal check assemblies without a relief vent.</desc><g fill="none" stroke="#17201d" stroke-width="10" stroke-linecap="square" stroke-linejoin="round"><path d="M38 220h92m380 0h92M130 170h72v100h-72zM438 170h72v100h-72zM202 180h236v80H202z"/><path d="M270 180v80m100-80v80M238 220l32-28v56zM402 220l-32-28v56zM166 170v-46m308 46v-46M141 124h50m258 0h50"/><path d="M202 284h236"/></g><g fill="#c64e32"><circle cx="270" cy="220" r="9"/><circle cx="370" cy="220" r="9"/></g><g fill="#5d6661" font-family="IBM Plex Mono,monospace" font-size="15"><text x="34" y="202">INLET</text><text x="542" y="202">OUTLET</text><text x="235" y="88">TWO CHECKS</text><text x="225" y="315">NO RELIEF VENT</text></g></svg>
